<svg width="48" height="45" viewBox="0 0 48 45" fill="none" xmlns="http://www.w3.org/2000/svg">
<rect width="48" height="45" rx="10" fill="#F67952" fill-opacity="0.1"/>
<path opacity="0.4" d="M34.1653 26.3021C34.1653 29.0955 31.9193 31.3583 29.1219 31.3683H29.1118H19.1754C16.388 31.3683 14.1119 29.1155 14.1119 26.3221V26.3121C14.1119 26.3121 14.118 21.8806 14.126 19.6519C14.127 19.2334 14.6083 18.9991 14.9361 19.2594C17.3185 21.1467 21.5788 24.588 21.6319 24.633C22.3438 25.2027 23.2462 25.5241 24.1687 25.5241C25.0911 25.5241 25.9935 25.2027 26.7054 24.622C26.7586 24.587 30.9237 21.2489 33.3421 19.3305C33.671 19.0692 34.1542 19.3035 34.1552 19.721C34.1653 21.9327 34.1653 26.3021 34.1653 26.3021Z" fill="#F67952"/>
<path d="M33.64 16.0229C32.7717 14.3889 31.0632 13.3456 29.1821 13.3456H19.1755C17.2945 13.3456 15.586 14.3889 14.7177 16.0229C14.5232 16.3883 14.6154 16.8439 14.9393 17.1022L22.3841 23.0485C22.9055 23.469 23.5371 23.6783 24.1688 23.6783C24.1728 23.6783 24.1758 23.6783 24.1788 23.6783C24.1818 23.6783 24.1859 23.6783 24.1889 23.6783C24.8205 23.6783 25.4522 23.469 25.9736 23.0485L33.4184 17.1022C33.7423 16.8439 33.8345 16.3883 33.64 16.0229Z" fill="#F67952"/>
</svg>
