<svg width="102" height="102" viewBox="0 0 102 102" fill="none" xmlns="http://www.w3.org/2000/svg">
<g filter="url(#filter0_d_33_1441)">
<ellipse cx="45.6656" cy="47.1311" rx="35.5329" ry="35.482" fill="white"/>
</g>
<g clip-path="url(#clip0_33_1441)">
<path d="M60.0335 44.4329L47.3552 44.4323C46.7953 44.4323 46.3416 44.8853 46.3416 45.4444V49.4887C46.3416 50.0477 46.7953 50.5009 47.3551 50.5009H54.4948C53.713 52.5269 52.2538 54.2236 50.3921 55.3017L53.4365 60.5642C58.32 57.7439 61.2071 52.7955 61.2071 47.256C61.2071 46.4672 61.1489 45.9034 61.0325 45.2685C60.944 44.7862 60.5246 44.4329 60.0335 44.4329Z" fill="#167EE6"/>
<path d="M45.6654 56.5773C42.1714 56.5773 39.1212 54.671 37.483 51.8501L32.2131 54.8832C34.8949 59.5245 39.9188 62.65 45.6654 62.65C48.4845 62.65 51.1446 61.892 53.4361 60.5711V60.5639L50.3918 55.3014C48.9992 56.1079 47.3878 56.5773 45.6654 56.5773Z" fill="#12B347"/>
<path d="M53.4363 60.5714V60.5642L50.3919 55.3016C48.9994 56.1081 47.3881 56.5775 45.6656 56.5775V62.6502C48.4847 62.6502 51.1449 61.8923 53.4363 60.5714Z" fill="#0F993E"/>
<path d="M36.2057 47.131C36.2057 45.4112 36.6757 43.8023 37.4832 42.4118L32.2133 39.3787C30.8832 41.6597 30.1243 44.3087 30.1243 47.131C30.1243 49.9533 30.8832 52.6023 32.2133 54.8833L37.4832 51.8502C36.6757 50.4597 36.2057 48.8507 36.2057 47.131Z" fill="#FFD500"/>
<path d="M45.6654 37.6847C47.9439 37.6847 50.0367 38.4932 51.6714 39.838C52.0747 40.1697 52.6609 40.1457 53.0303 39.7769L55.9 36.9113C56.3191 36.4927 56.2892 35.8077 55.8415 35.4198C53.1026 33.0472 49.5391 31.6121 45.6654 31.6121C39.9188 31.6121 34.8949 34.7375 32.2131 39.3788L37.483 42.4119C39.1212 39.591 42.1714 37.6847 45.6654 37.6847Z" fill="#FF4B26"/>
<path d="M51.6716 39.838C52.0749 40.1697 52.6611 40.1457 53.0304 39.7769L55.9001 36.9113C56.3192 36.4927 56.2893 35.8077 55.8417 35.4198C53.1028 33.0471 49.5392 31.6121 45.6656 31.6121V37.6847C47.944 37.6847 50.0369 38.4932 51.6716 39.838Z" fill="#D93F21"/>
</g>
<defs>
<filter id="filter0_d_33_1441" x="0.132751" y="0.64917" width="101.066" height="100.964" filterUnits="userSpaceOnUse" color-interpolation-filters="sRGB">
<feFlood flood-opacity="0" result="BackgroundImageFix"/>
<feColorMatrix in="SourceAlpha" type="matrix" values="0 0 0 0 0 0 0 0 0 0 0 0 0 0 0 0 0 0 127 0" result="hardAlpha"/>
<feOffset dx="5" dy="4"/>
<feGaussianBlur stdDeviation="7.5"/>
<feColorMatrix type="matrix" values="0 0 0 0 0.2 0 0 0 0 0.2 0 0 0 0 0.2 0 0 0 0.05 0"/>
<feBlend mode="normal" in2="BackgroundImageFix" result="effect1_dropShadow_33_1441"/>
<feBlend mode="normal" in="SourceGraphic" in2="effect1_dropShadow_33_1441" result="shape"/>
</filter>
<clipPath id="clip0_33_1441">
<rect width="31.0827" height="31.0381" fill="white" transform="translate(30.1243 31.6121)"/>
</clipPath>
</defs>
</svg>
