<svg width="18" height="22" viewBox="0 0 18 22" fill="none" xmlns="http://www.w3.org/2000/svg">
<ellipse cx="8.72789" cy="6.00216" rx="5.01537" ry="4.94064" stroke="black" stroke-opacity="0.5" stroke-width="1.5" stroke-linecap="round" stroke-linejoin="round"/>
<path fill-rule="evenodd" clip-rule="evenodd" d="M0.772478 17.8143C0.77113 17.4669 0.849983 17.1239 1.00307 16.811C1.48347 15.8645 2.83819 15.3629 3.96233 15.1357C4.77305 14.9653 5.59498 14.8514 6.42197 14.795C7.9531 14.6625 9.49307 14.6625 11.0242 14.795C11.8511 14.8521 12.673 14.9659 13.4838 15.1357C14.608 15.3629 15.9627 15.8172 16.4431 16.811C16.751 17.4488 16.751 18.1892 16.4431 18.827C15.9627 19.8208 14.608 20.2751 13.4838 20.4928C12.6741 20.6703 11.8519 20.7874 11.0242 20.843C9.77799 20.9471 8.52596 20.9661 7.27708 20.8998C6.98885 20.8998 6.71021 20.8998 6.42197 20.843C5.59742 20.7881 4.77835 20.671 3.97194 20.4928C2.83819 20.2751 1.49308 19.8208 1.00307 18.827C0.850765 18.5105 0.771991 18.1645 0.772478 17.8143Z" stroke="black" stroke-opacity="0.5" stroke-width="1.5" stroke-linecap="round" stroke-linejoin="round"/>
</svg>
