<svg width="48" height="45" viewBox="0 0 48 45" fill="none" xmlns="http://www.w3.org/2000/svg">
<rect width="48" height="45" rx="10" fill="#F67952" fill-opacity="0.1"/>
<path fill-rule="evenodd" clip-rule="evenodd" d="M19.8961 19.1569H28.3811C30.7449 19.1569 32.6613 21.0284 32.6613 23.3367V28.2796C32.6613 30.5879 30.7449 32.4594 28.3811 32.4594H19.8961C17.5324 32.4594 15.616 30.5879 15.616 28.2796V23.3367C15.616 21.0284 17.5324 19.1569 19.8961 19.1569ZM24.1335 27.7831C24.6328 27.7831 25.0301 27.3951 25.0301 26.9076V24.6988C25.0301 24.2212 24.6328 23.8331 24.1335 23.8331C23.6445 23.8331 23.2471 24.2212 23.2471 24.6988V26.9076C23.2471 27.3951 23.6445 27.7831 24.1335 27.7831Z" fill="#F67952"/>
<path opacity="0.4" d="M29.6762 17.8373V19.3098C29.3196 19.2103 28.9426 19.1606 28.5555 19.1606H27.8932V17.8373C27.8932 15.8175 26.2121 14.1759 24.1439 14.1759C22.0756 14.1759 20.3945 15.8076 20.3843 17.8174V19.1606H19.7322C19.3349 19.1606 18.9579 19.2103 18.6013 19.3198V17.8373C18.6115 14.8524 21.0873 12.4347 24.1235 12.4347C27.2004 12.4347 29.6762 14.8524 29.6762 17.8373Z" fill="#F67952"/>
</svg>
